#!OML:ASF H:\Dans Jumps\Project 1\Capture day 1\Session 1\subject.ASF
:FULLY-SPECIFIED
:DEGREES
201
root 0.477256 13.8882 -16.6789 36.3327 2.96177 -2.16097
lowerback 43.3562 1.46361 -0.326825
upperback 2.93135 2.33066 3.38551
thorax -17.7501 1.07239 2.8176
lowerneck -16.7 -1.1245 -1.87751
upperneck -19.1331 -1.41906 -1.11578
head -3.5234 -0.570353 -0.0803562
rclavicle -1.19271e-014 -2.127e-014
rhumerus -50.3967 -24.017 -54.404
rradius 20.6105
rwrist 38.2613
rhand -14.2647 -22.7054
rfingers 7.12502
rthumb 11.8739 -52.3487
lclavicle -1.19271e-014 -2.127e-014
lhumerus -50.2822 8.22015 70.5411
lradius 12.6104
lwrist -1.52708
lhand -24.6206 -8.72961
lfingers 7.12502
lthumb 1.87801 21.2419
rfemur -91.962 -1.92923 22.7434
rtibia 83.2617
rfoot -31.233 -15.9465
rtoes 1.69914
lfemur -92.5535 4.25561 -21.4397
ltibia 82.3494
lfoot -25.1878 21.1019
ltoes -13.6557
202
root 0.472992 13.8392 -16.6328 36.4148 2.94 -2.12986
lowerback 43.7805 1.51952 -0.384354
upperback 2.95788 2.36644 3.35388
thorax -17.8589 1.0868 2.79142
lowerneck -16.5986 -1.13633 -1.88291
upperneck -19.3435 -1.43735 -1.08695
head -3.61734 -0.576729 -0.0693254
rclavicle 3.97569e-015 -8.15017e-015
rhumerus -50.2671 -24.6825 -54.0182
rradius 20.0574
rwrist 39.334
rhand -14.2483 -22.6372
rfingers 7.12502
rthumb 11.8897 -52.2796
lclavicle 3.97569e-015 -8.15017e-015
lhumerus -50.0496 9.17673 69.7827
lradius 11.9576
lwrist -3.16424
lhand -24.2542 -8.72324
lfingers 7.12502
lthumb 2.23183 21.2448
rfemur -92.243 -2.07552 22.8802
rtibia 83.8702
rfoot -31.3643 -15.9705
rtoes 1.73158
lfemur -92.841 4.46441 -21.6762
ltibia 82.9588
lfoot -25.304 21.1127
ltoes -13.6077
203
root 0.468029 13.7952 -16.5805 36.4778 2.91361 -2.09026
lowerback 44.1096 1.58067 -0.454588
upperback 2.98523 2.40192 3.32474
thorax -17.9345 1.10259 2.7751
lowerneck -16.5124 -1.14539 -1.864
upperneck -19.5048 -1.45892 -1.10022
head -3.69149 -0.586067 -0.0766258
rclavicle 3.97569e-016 -3.16068e-014
rhumerus -50.0517 -25.4087 -53.6497
rradius 19.5163
rwrist 40.3382
rhand -14.2977 -22.565
rfingers 7.12502
rthumb 11.8421 -52.2101
lclavicle 3.97569e-016 -3.16068e-014
lhumerus -49.7158 10.1517 69.0364
lradius 11.3334
lwrist -4.9527
lhand -23.9257 -8.73727
lfingers 7.12502
lthumb 2.54914 21.2272
rfemur -92.4441 -2.18119 22.9682
rtibia 84.4379
rfoot -31.4766 -16.0164
rtoes 1.77408
lfemur -93.0434 4.65106 -21.8862
ltibia 83.5237
lfoot -25.4234 21.1155
ltoes -13.5324
204
root 0.462886 13.7555 -16.5229 36.5597 2.89281 -2.05574
lowerback 44.3001 1.63927 -0.517115
upperback 3.01023 2.43823 3.30138
thorax -17.9676 1.11916 2.76145
lowerneck -16.4455 -1.15077 -1.82269
upperneck -19.6183 -1.48227 -1.15577
head -3.74549 -0.597416 -0.102077
rclavicle -1.15295e-014 -9.14409e-015
rhumerus -49.7453 -26.1935 -53.3099
rradius 18.9978
rwrist 41.2444
rhand -14.4334 -22.5096
rfingers 7.12502
rthumb 11.7112 -52.1623
lclavicle -1.15295e-014 -9.14409e-015
lhumerus -49.2797 11.186 68.2755
lradius 10.7341
lwrist -6.93165
lhand -23.6544 -8.7798
lfingers 7.12502
lthumb 2.81115 21.1814
rfemur -92.6094 -2.24086 23.0241
rtibia 84.9605
rfoot -31.5628 -16.0825
rtoes 1.83439
lfemur -93.2117 4.81006 -22.0535
ltibia 84.0451
lfoot -25.5356 21.1246
ltoes -13.4279
205
root 0.4568 13.7239 -16.4574 36.5967 2.90856 -2.02415
lowerback 44.4276 1.6826 -0.557182
upperback 3.03772 2.46955 3.29331
thorax -17.9768 1.13307 2.75618
lowerneck -16.4137 -1.15675 -1.77697
upperneck -19.6742 -1.50757 -1.23201
head -3.77269 -0.610334 -0.135551
rclavicle 1.63003e-014 9.34288e-015
rhumerus -49.3371 -27.0296 -53.012
rradius 18.4995
rwrist 42.0648
rhand -14.6734 -22.4865
rfingers 7.12502
rthumb 11.4798 -52.1522
lclavicle 1.63003e-014 9.34288e-015
lhumerus -48.7493 12.358 67.4378
lradius 10.1489
lwrist -9.16081
lhand -23.4492 -8.84165
lfingers 7.12502
lthumb 3.00928 21.1169
rfemur -92.6308 -2.26819 23.0535
rtibia 85.4248
rfoot -31.6569 -16.1914
rtoes 1.945
lfemur -93.2438 4.93014 -22.1568
ltibia 84.5098
lfoot -25.6699 21.152
ltoes -13.3094
206
root 0.45232 13.6978 -16.3859 36.6468 2.9375 -2.01568
lowerback 44.4329 1.7098 -0.556934
upperback 3.05841 2.50138 3.2898
thorax -17.9541 1.14522 2.73545
lowerneck -16.4125 -1.16076 -1.72392
upperneck -19.6815 -1.53168 -1.32727
head -3.77699 -0.623369 -0.176862
rclavicle -4.77083e-015 -1.15295e-014
rhumerus -48.8185 -27.9074 -52.7737
rradius 18.0216
rwrist 42.8522
rhand -15.0091 -22.5101
rfingers 7.12502
rthumb 11.156 -52.1936
lclavicle -4.77083e-015 -1.15295e-014
lhumerus -47.8465 12.6575 67.7092
lradius 9.55135
lwrist -10.0702
lhand -23.5369 -8.78005
lfingers 7.12502
lthumb 2.92463 21.1796
rfemur -92.5934 -2.2564 23.072
rtibia 85.8284
rfoot -31.7378 -16.3225
rtoes 2.09755
lfemur -93.2271 5.01762 -22.1967
ltibia 84.9245
lfoot -25.8012 21.2156
ltoes -13.1808
207
root 0.449719 13.6773 -16.3084 36.7123 2.98288 -2.02827
lowerback 44.323 1.71631 -0.511896
upperback 3.06735 2.52988 3.28752
thorax -17.9071 1.15378 2.69521
lowerneck -16.4465 -1.16613 -1.68051
upperneck -19.6343 -1.55294 -1.41328
head -3.75511 -0.635321 -0.213624
rclavicle 2.78299e-015 1.92821e-014
rhumerus -48.1776 -28.8162 -52.6137
rradius 17.5545
rwrist 43.6825
rhand -15.4321 -22.5832
rfingers 7.12502
rthumb 10.748 -52.2882
lclavicle 2.78299e-015 1.92821e-014
lhumerus -46.7785 12.9689 68.0295
lradius 8.93515
lwrist -10.9268
lhand -23.6934 -8.6948
lfingers 7.12502
lthumb 2.77342 21.2669
rfemur -92.4996 -2.21416 23.0828
rtibia 86.1686
rfoot -31.811 -16.4756
rtoes 2.29176
lfemur -93.1623 5.0672 -22.1747
ltibia 85.2826
lfoot -25.9229 21.3104
ltoes -13.0194
208
root 0.447831 13.6643 -16.2239 36.7603 3.05505 -2.04426
lowerback 44.1421 1.70202 -0.436594
upperback 3.0658 2.54854 3.28923
thorax -17.8487 1.1571 2.64927
lowerneck -16.5185 -1.17075 -1.64408
upperneck -19.5348 -1.56833 -1.48706
head -3.70743 -0.644948 -0.245205
rclavicle 5.1684e-015 -9.54166e-015
rhumerus -47.4038 -29.7513 -52.5411
rradius 17.0889
rwrist 44.6731
rhand -15.9144 -22.7021
rfingers 7.12502
rthumb 10.2827 -52.4308
lclavicle 5.1684e-015 -9.54166e-015
lhumerus -45.5174 13.308 68.4048
lradius 8.26318
lwrist -11.6671
lhand -23.9126 -8.57515
lfingers 7.12502
lthumb 2.56179 21.3892
rfemur -92.2985 -2.15451 23.0744
rtibia 86.4443
rfoot -31.9052 -16.6625
rtoes 2.53704
lfemur -92.9943 5.07282 -22.0993
ltibia 85.5744
lfoot -26.0522 21.4324
ltoes -12.8246
209
root 0.444419 13.6621 -16.1307 36.7418 3.16986 -2.03289
lowerback 43.9572 1.66921 -0.357648
upperback 3.05555 2.54838 3.29845
thorax -17.799 1.15335 2.6196
lowerneck -16.6198 -1.17875 -1.62077
upperneck -19.393 -1.58125 -1.53358
head -3.63909 -0.653769 -0.265528
rclavicle 2.38542e-015 4.57205e-015
rhumerus -46.4944 -30.7355 -52.5467
rradius 16.6168
rwrist 45.9036
rhand -16.4173 -22.8557
rfingers 7.12502
rthumb 9.79759 -52.6078
lclavicle 2.38542e-015 4.57205e-015
lhumerus -44.0669 13.6579 68.8298
lradius 7.56039
lwrist -12.2338
lhand -24.1444 -8.40795
lfingers 7.12502
lthumb 2.33787 21.559
rfemur -91.9123 -2.09506 23.0276
rtibia 86.6515
rfoot -32.0552 -16.9058
rtoes 2.83336
lfemur -92.6386 5.02913 -21.9894
ltibia 85.7819
lfoot -26.2122 21.5743
ltoes -12.6107
210
root 0.440452 13.667 -16.0311 36.7281 3.3109 -1.99912
lowerback 43.6858 1.62046 -0.277412
upperback 3.03127 2.52956 3.3083
thorax -17.7371 1.14297 2.60007
lowerneck -16.7516 -1.19235 -1.61998
upperneck -19.2078 -1.59183 -1.54004
head -3.54937 -0.66151 -0.26878
rclavicle -6.36111e-015 -8.15017e-015
rhumerus -45.4449 -31.7863 -52.6259
rradius 16.1456
rwrist 47.3895
rhand -16.8656 -23.012
rfingers 7.12502
rthumb 9.36505 -52.784
lclavicle -6.36111e-015 -8.15017e-015
lhumerus -42.4262 14.0139 69.3026
lradius 6.83852
lwrist -12.6166
lhand -24.3741 -8.22313
lfingers 7.12502
lthumb 2.11607 21.7461
rfemur -91.4498 -2.03152 22.9479
rtibia 86.8001
rfoot -32.2522 -17.1726
rtoes 3.22111
lfemur -92.203 4.93419 -21.8541
ltibia 85.9149
lfoot -26.3751 21.7356
ltoes -12.3758
211
root 0.436528 13.6794 -15.9245 36.696 3.44774 -1.9517
lowerback 43.3534 1.57181 -0.212459
upperback 2.99825 2.50242 3.31434
thorax -17.665 1.13074 2.58881
lowerneck -16.8971 -1.20721 -1.62383
upperneck -18.9984 -1.60003 -1.52596
head -3.44876 -0.668554 -0.264484
rclavicle 1.19271e-015 -1.98785e-014
rhumerus -44.2273 -32.8778 -52.8229
rradius 15.701
rwrist 48.9498
rhand -17.1929 -23.1466
rfingers 7.12502
rthumb 9.04925 -52.9325
lclavicle 1.19271e-015 -1.98785e-014
lhumerus -40.6042 14.364 69.8188
lradius 6.12776
lwrist -12.8375
lhand -24.6037 -8.04023
lfingers 7.12502
lthumb 1.89427 21.9311
rfemur -90.8812 -1.94563 22.8294
rtibia 86.8846
rfoot -32.4993 -17.4666
rtoes 3.68615
lfemur -91.6564 4.80964 -21.6988
ltibia 85.9759
lfoot -26.5558 21.924
ltoes -12.1066
